<?xml version="1.0" encoding="UTF-8"?>
<svg width="24" height="24" viewBox="0 0 24 24" fill="none" xmlns="http://www.w3.org/2000/svg">
  <path d="M12 22C17.5228 22 22 17.5228 22 12C22 6.47715 17.5228 2 12 2C6.47715 2 2 6.47715 2 12C2 17.5228 6.47715 22 12 22Z" stroke="#1e40af" stroke-width="2"/>
  <path d="M8 8H10C11.1046 8 12 8.89543 12 10C12 11.1046 11.1046 12 10 12H8V8Z" stroke="#1e40af" stroke-width="2"/>
  <path d="M8 12H10C11.1046 12 12 12.8954 12 14C12 15.1046 11.1046 16 10 16H8V12Z" stroke="#1e40af" stroke-width="2"/>
  <path d="M12 8H14C15.1046 8 16 8.89543 16 10C16 11.1046 15.1046 12 14 12H12V8Z" stroke="#1e40af" stroke-width="2"/>
  <path d="M12 12H14C15.1046 12 16 12.8954 16 14C16 15.1046 15.1046 16 14 16H12V12Z" stroke="#1e40af" stroke-width="2"/>
</svg> 