<?xml version="1.0" encoding="UTF-8"?>
<svg width="40" height="40" viewBox="0 0 40 40" fill="none" xmlns="http://www.w3.org/2000/svg">
  <circle cx="20" cy="20" r="18" fill="#3B82F6"/>
  <path d="M12 14h6c1.657 0 3 1.343 3 3s-1.343 3-3 3h-6v-6z" fill="white"/>
  <path d="M12 20h6c1.657 0 3 1.343 3 3s-1.343 3-3 3h-6v-6z" fill="white"/>
  <path d="M22 14h6c1.657 0 3 1.343 3 3s-1.343 3-3 3h-6v-6z" fill="white"/>
  <path d="M22 20h6c1.657 0 3 1.343 3 3s-1.343 3-3 3h-6v-6z" fill="white"/>
  <text x="20" y="28" text-anchor="middle" font-size="8" font-weight="bold" fill="#3B82F6">A+</text>
</svg> 