<?xml version="1.0" encoding="UTF-8"?>
<svg width="100" height="100" viewBox="0 0 100 100" fill="none" xmlns="http://www.w3.org/2000/svg">
    <!-- Background Circle -->
    <circle cx="50" cy="50" r="50" fill="#FCE7F3"/>
    
    <!-- Face Shape -->
    <circle cx="50" cy="45" r="25" fill="#F9A8D4"/>
    
    <!-- Hair -->
    <path d="M25 45 Q50 20 75 45" stroke="#831843" stroke-width="12"/>
    <path d="M30 42 Q50 25 70 42" fill="#831843"/>
    
    <!-- Earrings -->
    <circle cx="25" cy="45" r="3" fill="white"/>
    <circle cx="75" cy="45" r="3" fill="white"/>
    
    <!-- Eyes with Makeup -->
    <path d="M35 40 Q40 38 45 40" stroke="#831843" stroke-width="2"/>
    <path d="M55 40 Q60 38 65 40" stroke="#831843" stroke-width="2"/>
    <circle cx="40" cy="40" r="2" fill="#831843"/>
    <circle cx="60" cy="40" r="2" fill="#831843"/>
    
    <!-- Smile with Lipstick -->
    <path d="M40 50 Q50 60 60 50" stroke="#BE185D" stroke-width="3" fill="none"/>
    
    <!-- Pearl Necklace -->
    <circle cx="40" cy="65" r="2" fill="white"/>
    <circle cx="45" cy="67" r="2" fill="white"/>
    <circle cx="50" cy="68" r="2" fill="white"/>
    <circle cx="55" cy="67" r="2" fill="white"/>
    <circle cx="60" cy="65" r="2" fill="white"/>
    
    <!-- Elegant Blouse -->
    <path d="M25 75 Q50 90 75 75" fill="#BE185D"/>
    <path d="M35 80 Q50 85 65 80" stroke="white" stroke-width="2" opacity="0.5"/>
</svg> 