<?xml version="1.0" encoding="UTF-8"?>
<svg width="100" height="100" viewBox="0 0 100 100" fill="none" xmlns="http://www.w3.org/2000/svg">
    <!-- Background Circle -->
    <circle cx="50" cy="50" r="50" fill="#EFF6FF"/>
    
    <!-- Face Shape -->
    <circle cx="50" cy="45" r="25" fill="#93C5FD"/>
    
    <!-- Hair -->
    <path d="M30 35 Q50 25 70 35" stroke="#1E3A8A" stroke-width="12"/>
    <path d="M35 32 Q50 25 65 32" fill="#1E3A8A"/>
    
    <!-- Glasses -->
    <path d="M35 40 L65 40" stroke="#1E3A8A" stroke-width="2"/>
    <rect x="35" y="35" width="12" height="10" rx="5" stroke="#1E3A8A" stroke-width="2" fill="none"/>
    <rect x="53" y="35" width="12" height="10" rx="5" stroke="#1E3A8A" stroke-width="2" fill="none"/>
    
    <!-- Eyes -->
    <circle cx="41" cy="40" r="2" fill="#1E3A8A"/>
    <circle cx="59" cy="40" r="2" fill="#1E3A8A"/>
    
    <!-- Smile -->
    <path d="M40 50 Q50 55 60 50" stroke="#1E3A8A" stroke-width="2" fill="none"/>
    
    <!-- Business Suit -->
    <path d="M35 75 L50 85 L65 75" fill="#1E3A8A"/>
    <path d="M45 70 L50 80 L55 70" fill="white"/>
    <path d="M48 75 L50 85 L52 75" fill="#DC2626"/>
</svg> 