<?xml version="1.0" encoding="UTF-8"?>
<svg width="32" height="32" viewBox="0 0 32 32" fill="none" xmlns="http://www.w3.org/2000/svg">
  <path d="M16 2C8.268 2 2 8.268 2 16C2 23.732 8.268 30 16 30C23.732 30 30 23.732 30 16C30 8.268 23.732 2 16 2Z" stroke="#1e40af" stroke-width="2"/>
  <path d="M16 8V24" stroke="#1e40af" stroke-width="2" stroke-linecap="round"/>
  <path d="M20 12H14C12.8954 12 12 12.8954 12 14C12 15.1046 12.8954 16 14 16H18C19.1046 16 20 16.8954 20 18C20 19.1046 19.1046 20 18 20H12" stroke="#1e40af" stroke-width="2" stroke-linecap="round"/>
</svg> 