<?xml version="1.0" encoding="UTF-8"?>
<svg width="600" height="400" viewBox="0 0 600 400" xmlns="http://www.w3.org/2000/svg">
    <!-- Background with gradient -->
    <defs>
        <linearGradient id="bg-gradient" x1="0" y1="0" x2="0" y2="1">
            <stop offset="0%" stop-color="#F8FAFF"/>
            <stop offset="100%" stop-color="#E6EFFF"/>
        </linearGradient>
        <!-- Shadow filter -->
        <filter id="shadow" x="-20%" y="-20%" width="140%" height="140%">
            <feGaussianBlur in="SourceAlpha" stdDeviation="3"/>
            <feOffset dx="2" dy="2"/>
            <feComponentTransfer>
                <feFuncA type="linear" slope="0.3"/>
            </feComponentTransfer>
            <feMerge>
                <feMergeNode/>
                <feMergeNode in="SourceGraphic"/>
            </feMerge>
        </filter>
    </defs>
    
    <rect width="600" height="400" fill="url(#bg-gradient)"/>
    
    <!-- Main Family Group -->
    <g transform="translate(150, 50)">
        <!-- Grandfather -->
        <g filter="url(#shadow)">
            <!-- Head -->
            <circle cx="150" cy="80" r="35" fill="#1E40AF"/>
            <!-- Body with more detail -->
            <path d="M120 115 Q150 110 180 115 L175 220 Q150 230 125 220 Z" fill="#1E40AF"/>
            <!-- Arms -->
            <path d="M125 130 Q100 150 110 180" stroke="#1E40AF" stroke-width="20" fill="none" stroke-linecap="round"/>
            <path d="M175 130 Q200 150 190 180" stroke="#1E40AF" stroke-width="20" fill="none" stroke-linecap="round"/>
        </g>
        
        <!-- Grandmother -->
        <g filter="url(#shadow)" transform="translate(60, 0)">
            <!-- Head -->
            <circle cx="150" cy="80" r="35" fill="#2563EB"/>
            <!-- Body with dress shape -->
            <path d="M120 115 Q150 110 180 115 L190 220 Q150 240 110 220 Z" fill="#2563EB"/>
            <!-- Arms -->
            <path d="M125 140 Q100 160 110 190" stroke="#2563EB" stroke-width="18" fill="none" stroke-linecap="round"/>
            <path d="M175 140 Q200 160 190 190" stroke="#2563EB" stroke-width="18" fill="none" stroke-linecap="round"/>
        </g>
        
        <!-- Adult Son -->
        <g filter="url(#shadow)" transform="translate(-60, 40) scale(0.9)">
            <!-- Head -->
            <circle cx="150" cy="80" r="30" fill="#3B82F6"/>
            <!-- Body -->
            <path d="M130 110 Q150 105 170 110 L165 200 Q150 210 135 200 Z" fill="#3B82F6"/>
            <!-- Arms -->
            <path d="M135 125 Q115 145 120 170" stroke="#3B82F6" stroke-width="16" fill="none" stroke-linecap="round"/>
            <path d="M165 125 Q185 145 180 170" stroke="#3B82F6" stroke-width="16" fill="none" stroke-linecap="round"/>
        </g>
        
        <!-- Adult Daughter -->
        <g filter="url(#shadow)" transform="translate(180, 40) scale(0.9)">
            <!-- Head -->
            <circle cx="150" cy="80" r="30" fill="#60A5FA"/>
            <!-- Body with dress -->
            <path d="M130 110 Q150 105 170 110 L175 200 Q150 215 125 200 Z" fill="#60A5FA"/>
            <!-- Arms -->
            <path d="M135 130 Q115 150 120 175" stroke="#60A5FA" stroke-width="16" fill="none" stroke-linecap="round"/>
            <path d="M165 130 Q185 150 180 175" stroke="#60A5FA" stroke-width="16" fill="none" stroke-linecap="round"/>
        </g>
        
        <!-- Child 1 -->
        <g filter="url(#shadow)" transform="translate(0, 120) scale(0.7)">
            <!-- Head -->
            <circle cx="150" cy="80" r="25" fill="#93C5FD"/>
            <!-- Body -->
            <path d="M135 105 Q150 100 165 105 L160 170 Q150 180 140 170 Z" fill="#93C5FD"/>
            <!-- Arms -->
            <path d="M140 120 Q120 135 125 155" stroke="#93C5FD" stroke-width="12" fill="none" stroke-linecap="round"/>
            <path d="M160 120 Q180 135 175 155" stroke="#93C5FD" stroke-width="12" fill="none" stroke-linecap="round"/>
        </g>
        
        <!-- Child 2 -->
        <g filter="url(#shadow)" transform="translate(120, 120) scale(0.7)">
            <!-- Head -->
            <circle cx="150" cy="80" r="25" fill="#BFDBFE"/>
            <!-- Body -->
            <path d="M135 105 Q150 100 165 105 L160 170 Q150 180 140 170 Z" fill="#BFDBFE"/>
            <!-- Arms -->
            <path d="M140 120 Q120 135 125 155" stroke="#BFDBFE" stroke-width="12" fill="none" stroke-linecap="round"/>
            <path d="M160 120 Q180 135 175 155" stroke="#BFDBFE" stroke-width="12" fill="none" stroke-linecap="round"/>
        </g>
    </g>
    
    <!-- Decorative Elements -->
    <path d="M0 300C200 280 400 280 600 300L600 400L0 400Z" fill="#E6EFFF"/>
    
    <!-- Subtle connecting lines -->
    <g stroke="#1E40AF" stroke-width="2" opacity="0.2">
        <path d="M300 200C250 250 350 250 300 300" fill="none"/>
    </g>
</svg> 