<?xml version="1.0" encoding="UTF-8"?>
<svg width="600" height="400" viewBox="0 0 600 400" xmlns="http://www.w3.org/2000/svg">
    <!-- Background -->
    <rect width="600" height="400" fill="#F8FAFF"/>
    
    <!-- Shield -->
    <path d="M100 50C300 50 300 200 300 350C300 500 200 350 100 350C0 350 -100 500 -100 350C-100 200 -100 50 100 50Z" 
          fill="#E6EFFF" 
          stroke="#1E40AF" 
          stroke-width="6"/>
    
    <!-- Family Group -->
    <g transform="translate(150, 100)">
        <!-- Parent 1 -->
        <circle cx="100" cy="80" r="40" fill="#1E40AF"/>
        <path d="M70 130Q100 125 130 130L125 250L75 250Z" fill="#1E40AF"/>
        
        <!-- Parent 2 -->
        <circle cx="250" cy="80" r="40" fill="#2563EB"/>
        <path d="M220 130Q250 125 280 130L275 250L225 250Z" fill="#2563EB"/>
        
        <!-- Child 1 -->
        <circle cx="175" cy="120" r="35" fill="#3B82F6"/>
        <path d="M150 160Q175 155 200 160L195 260L155 260Z" fill="#3B82F6"/>
        
        <!-- Child 2 -->
        <circle cx="300" cy="110" r="30" fill="#60A5FA"/>
        <path d="M275 145Q300 140 325 145L320 230L280 230Z" fill="#60A5FA"/>
    </g>
    
    <!-- Message Box -->
    <rect x="100" y="320" width="400" height="60" rx="30" fill="white" stroke="#1E40AF" stroke-width="3"/>
    <text x="300" y="360" 
          font-family="Arial, sans-serif" 
          font-size="28" 
          font-weight="bold" 
          fill="#1E40AF" 
          text-anchor="middle">
        Protecting Your Family's Future
    </text>
</svg> 