<?xml version="1.0" encoding="UTF-8"?>
<svg width="32" height="32" viewBox="0 0 32 32" fill="none" xmlns="http://www.w3.org/2000/svg">
  <defs>
    <linearGradient id="logoGradient" x1="0" y1="0" x2="32" y2="32">
      <stop offset="0%" stopColor="#60A5FA"/>
      <stop offset="100%" stopColor="#3B82F6"/>
    </linearGradient>
  </defs>
  
  <path d="M16 2L4 8V16C4 23.732 16 30 16 30C16 30 28 23.732 28 16V8L16 2Z" fill="url(#logoGradient)"/>
  <path d="M16 6L8 10V16C8 21.302 16 26 16 26C16 26 24 21.302 24 16V10L16 6Z" fill="white" fillOpacity="0.3"/>
  <path d="M16 10L12 12V16C12 18.866 16 22 16 22C16 22 20 18.866 20 16V12L16 10Z" fill="white"/>
</svg> 