<?xml version="1.0" encoding="UTF-8"?>
<svg width="600" height="400" viewBox="0 0 600 400" fill="none" xmlns="http://www.w3.org/2000/svg">
  <rect width="600" height="400" fill="#E2E8F0"/>
  <path d="M300 160C322.091 160 340 142.091 340 120C340 97.9086 322.091 80 300 80C277.909 80 260 97.9086 260 120C260 142.091 277.909 160 300 160Z" fill="#94A3B8"/>
  <path d="M380 200C397.673 200 412 185.673 412 168C412 150.327 397.673 136 380 136C362.327 136 348 150.327 348 168C348 185.673 362.327 200 380 200Z" fill="#94A3B8"/>
  <path d="M220 200C237.673 200 252 185.673 252 168C252 150.327 237.673 136 220 136C202.327 136 188 150.327 188 168C188 185.673 202.327 200 220 200Z" fill="#94A3B8"/>
  <path d="M300 170C258 170 224 204 224 246V280H376V246C376 204 342 170 300 170Z" fill="#94A3B8"/>
  <path d="M380 210C348 210 324 234 324 266V280H436V266C436 234 412 210 380 210Z" fill="#94A3B8"/>
  <path d="M220 210C188 210 164 234 164 266V280H276V266C276 234 252 210 220 210Z" fill="#94A3B8"/>
  <text x="300" y="340" text-anchor="middle" font-family="system-ui" font-size="24" fill="#475569">Family Photo Placeholder</text>
</svg> 